<svg width="724" height="2020" viewBox="0 0 724 2020" fill="none" xmlns="http://www.w3.org/2000/svg">
<path d="M289.612 1904.28C289.612 1904.28 292.062 1938.15 283.852 1945.14C279.542 1948.81 271.872 1951.91 265.562 1954.01C259.462 1956.05 255.222 1961.58 254.742 1967.99C253.852 1979.82 251.482 1997.68 245.192 2003.11C235.512 2011.46 216.922 2016.59 172.642 2014.41C128.362 2012.23 117.042 1979.81 131.802 1945.4" fill="white"/>
<path d="M191.442 2016.92C185.612 2016.92 179.322 2016.75 172.542 2016.42C152.482 2015.43 137.722 2008.25 129.862 1995.65C121.532 1982.31 121.572 1964.19 129.962 1944.61L133.642 1946.19C125.892 1964.26 125.752 1981.51 133.252 1993.53C140.392 2004.97 154.052 2011.5 172.742 2012.42C211.072 2014.31 233.012 2010.97 243.892 2001.6C248.192 1997.89 251.432 1985.59 252.762 1967.85C253.302 1960.58 258.092 1954.41 264.942 1952.12C273.172 1949.37 279.272 1946.43 282.572 1943.62C288.672 1938.42 288.292 1913.56 287.632 1904.42L291.622 1904.13C291.882 1907.7 293.902 1939.22 285.162 1946.66C281.422 1949.84 275.052 1952.96 266.212 1955.91C260.892 1957.69 257.182 1962.49 256.752 1968.14C255.742 1981.63 253.142 1998.9 246.512 2004.62C236.812 2012.98 219.502 2016.91 191.452 2016.91L191.442 2016.92Z" fill="black"/>
<path d="M293.552 1834.47C293.552 1834.47 300.752 1893.87 282.712 1919.1C264.672 1944.33 258.462 1944.06 245.182 1963.84C231.902 1983.62 218.092 1989.24 192.652 1989.28C167.212 1989.32 128.532 1982.01 131.792 1945.41C135.062 1908.81 182.342 1900.1 193.322 1881.35C204.302 1862.6 207.162 1835.45 207.162 1835.45" fill="white"/>
<path d="M192.452 1991.28C178.162 1991.28 152.362 1989.01 138.562 1973.94C131.722 1966.47 128.772 1956.81 129.802 1945.23C131.952 1921.19 151.742 1909.02 169.202 1898.29C178.762 1892.41 187.792 1886.86 191.602 1880.34C202.232 1862.19 205.152 1835.51 205.182 1835.24L209.162 1835.66C209.042 1836.79 206.132 1863.46 195.062 1882.36C190.742 1889.74 181.302 1895.55 171.302 1901.69C154.642 1911.93 135.762 1923.55 133.792 1945.58C132.862 1956 135.462 1964.63 141.512 1971.24C154.752 1985.69 181.432 1987.28 192.482 1987.28H192.652C218.382 1987.24 231.212 1981.04 243.522 1962.72C250.112 1952.91 255.092 1947.85 260.352 1942.49C265.782 1936.97 271.942 1930.71 281.082 1917.93C298.462 1893.63 291.632 1835.29 291.562 1834.71L295.532 1834.23C295.552 1834.38 297.342 1849.43 296.892 1867.38C296.282 1891.68 292.052 1909.47 284.332 1920.27C275.012 1933.31 268.732 1939.68 263.202 1945.31C257.842 1950.75 253.222 1955.46 246.832 1964.96C233.642 1984.6 219.972 1991.24 192.652 1991.29H192.452V1991.28Z" fill="black"/>
<path d="M221.192 2012.84C221.192 2012.84 196.402 2007.25 192.052 1996.6C187.702 1985.95 184.942 1977.92 175.672 1976.68C166.402 1975.43 151.852 1991.82 144.402 1994.18C136.952 1996.54 129.752 1991.79 129.752 1991.79C129.752 1991.79 133.582 2015.85 166.302 2017.25C199.022 2018.65 221.202 2012.83 221.202 2012.83L221.192 2012.84Z" fill="black"/>
<path d="M176.602 2019.48C173.282 2019.48 169.812 2019.41 166.212 2019.26C132.252 2017.8 127.812 1992.37 127.772 1992.11L127.062 1987.63L130.852 1990.13C130.912 1990.17 137.372 1994.31 143.792 1992.28C146.342 1991.47 150.212 1988.51 154.312 1985.38C161.402 1979.97 169.432 1973.82 175.932 1974.7C185.862 1976.03 189.102 1984.04 193.222 1994.17L193.902 1995.85C197.142 2003.78 215.012 2009.39 221.632 2010.89L229.622 2012.7L221.702 2014.78C220.882 2014.99 203.432 2019.49 176.602 2019.49V2019.48ZM132.962 1995.54C135.622 2002.08 143.602 2014.29 166.392 2015.26C187.092 2016.15 203.632 2014.09 212.802 2012.51C211.152 2011.96 209.352 2011.31 207.512 2010.57C198.042 2006.74 192.222 2002.3 190.212 1997.36L189.522 1995.67C185.612 1986.05 183.032 1979.69 175.412 1978.66C170.542 1977.99 162.902 1983.85 156.752 1988.55C152.182 1992.04 148.232 1995.06 145.012 1996.08C140.462 1997.52 136.062 1996.65 132.972 1995.53L132.962 1995.54Z" fill="black"/>
<path d="M293.812 1881.73C293.812 1881.73 287.352 1909.69 274.032 1910.53C266.142 1911.03 262.572 1903.49 260.962 1897.25C260.482 1895.37 257.792 1895.38 257.292 1897.25C253.802 1910.28 248.832 1935.72 259.752 1945.97L280.522 1922.11C280.522 1922.11 295.172 1897.01 293.812 1881.74V1881.73Z" fill="#FFF243"/>
<path d="M259.902 1948.84L258.392 1947.42C246.842 1936.58 251.542 1911.01 255.372 1896.73C255.832 1895 257.352 1893.84 259.142 1893.84H259.162C260.952 1893.84 262.462 1895.02 262.912 1896.75C264.352 1902.35 267.422 1908.97 273.922 1908.53C283.612 1907.92 290.172 1888.65 291.882 1881.27L294.712 1869.08L295.822 1881.55C297.232 1897.28 282.882 1922.06 282.272 1923.11L282.052 1923.41L259.912 1948.83L259.902 1948.84ZM259.132 1898.13C256.352 1908.62 251.362 1932.35 259.722 1942.96L278.902 1920.93C279.602 1919.71 284.142 1911.63 287.672 1902.35C284.302 1907.73 279.832 1912.16 274.172 1912.52C267.072 1912.95 261.752 1907.86 259.142 1898.13H259.132Z" fill="black"/>
<path d="M217.532 1932.23C217.272 1932.23 217.012 1932.23 216.752 1932.21C197.132 1931.2 180.182 1930.33 180.912 1913.22C181.232 1905.71 183.332 1901.64 186.242 1896.02C189.032 1890.63 192.502 1883.92 196.182 1871.02L200.032 1872.12C196.242 1885.41 192.522 1892.61 189.802 1897.87C187.032 1903.23 185.192 1906.77 184.912 1913.41C184.432 1924.66 192.492 1926.98 216.962 1928.23C231.732 1929.01 248.042 1900.15 254.622 1884.79C260.352 1871.42 268.232 1837.76 268.312 1837.42L272.212 1838.33C271.882 1839.73 264.172 1872.67 258.302 1886.36C256.272 1891.11 238.052 1932.24 217.542 1932.24L217.532 1932.23Z" fill="black"/>
<path d="M171.632 1976.68L167.672 1976.1C167.802 1975.22 171.062 1954.25 190.822 1925.89L194.102 1928.18C174.932 1955.69 171.662 1976.47 171.632 1976.68Z" fill="black"/>
<path d="M185.602 1979.41L181.642 1978.83C181.772 1977.95 185.032 1956.98 204.792 1928.62L208.072 1930.91C188.902 1958.42 185.632 1979.21 185.602 1979.41Z" fill="black"/>
<path d="M235.832 1929.5C235.662 1929.5 235.482 1929.5 235.302 1929.47L178.552 1922.79C176.092 1922.5 174.322 1920.26 174.612 1917.8C174.882 1915.53 176.802 1913.83 179.072 1913.83C179.252 1913.83 179.422 1913.83 179.602 1913.86L236.352 1920.53C237.542 1920.67 238.612 1921.27 239.362 1922.21C240.102 1923.15 240.442 1924.33 240.302 1925.52C240.032 1927.79 238.112 1929.49 235.832 1929.49V1929.5Z" fill="white"/>
<path d="M179.072 1915.33C179.192 1915.33 179.312 1915.33 179.422 1915.35L236.172 1922.02C237.822 1922.21 238.992 1923.7 238.802 1925.35C238.622 1926.88 237.322 1928 235.822 1928C235.702 1928 235.582 1928 235.472 1927.98L178.722 1921.31C177.072 1921.12 175.902 1919.63 176.092 1917.98C176.272 1916.45 177.572 1915.33 179.072 1915.33ZM179.072 1912.33C176.032 1912.33 173.472 1914.61 173.122 1917.63C172.932 1919.22 173.382 1920.79 174.372 1922.05C175.362 1923.31 176.792 1924.1 178.382 1924.29L235.132 1930.96C235.372 1930.99 235.602 1931 235.832 1931C238.872 1931 241.432 1928.72 241.792 1925.7C241.982 1924.11 241.532 1922.54 240.542 1921.28C239.552 1920.02 238.122 1919.23 236.532 1919.04L179.782 1912.37C179.552 1912.34 179.312 1912.33 179.072 1912.33Z" fill="black"/>
<path d="M182.932 1913.09C180.582 1913.09 178.652 1911.32 178.452 1908.98C178.352 1907.78 178.712 1906.62 179.492 1905.69C180.262 1904.77 181.352 1904.21 182.552 1904.1L248.122 1898.41C248.252 1898.4 248.382 1898.39 248.512 1898.39C250.822 1898.39 252.792 1900.19 252.992 1902.5C253.092 1903.7 252.722 1904.86 251.952 1905.79C251.182 1906.71 250.092 1907.27 248.892 1907.38L183.322 1913.07C183.192 1913.08 183.062 1913.09 182.932 1913.09Z" fill="white"/>
<path d="M248.502 1899.89C250.042 1899.89 251.352 1901.07 251.492 1902.63C251.632 1904.28 250.412 1905.74 248.762 1905.88L183.192 1911.57C183.102 1911.57 183.012 1911.58 182.932 1911.58C181.392 1911.58 180.082 1910.4 179.942 1908.84C179.802 1907.19 181.022 1905.73 182.672 1905.59L248.242 1899.9C248.332 1899.9 248.412 1899.89 248.502 1899.89ZM248.502 1896.89C248.332 1896.89 248.162 1896.89 247.992 1896.91L182.412 1902.6C180.812 1902.74 179.372 1903.49 178.342 1904.72C177.312 1905.95 176.822 1907.5 176.962 1909.1C177.232 1912.23 179.802 1914.58 182.932 1914.58C183.102 1914.58 183.282 1914.58 183.462 1914.56L249.032 1908.87C250.632 1908.73 252.072 1907.98 253.102 1906.75C254.132 1905.52 254.622 1903.97 254.482 1902.37C254.212 1899.3 251.592 1896.89 248.502 1896.89Z" fill="black"/>
<path d="M242.252 1921.74C241.632 1921.74 241.032 1921.61 240.462 1921.37L186.552 1897.99C185.452 1897.51 184.602 1896.63 184.152 1895.52C183.712 1894.4 183.732 1893.18 184.212 1892.08C184.922 1890.43 186.552 1889.37 188.342 1889.37C188.962 1889.37 189.562 1889.49 190.132 1889.74L244.052 1913.12C245.152 1913.6 246.002 1914.48 246.452 1915.59C246.902 1916.7 246.872 1917.93 246.392 1919.03C245.682 1920.68 244.062 1921.74 242.262 1921.74H242.252Z" fill="white"/>
<path d="M188.332 1890.86C188.732 1890.86 189.132 1890.94 189.522 1891.11L243.442 1914.49C244.962 1915.15 245.662 1916.92 245.002 1918.44C244.512 1919.57 243.412 1920.25 242.252 1920.25C241.852 1920.25 241.452 1920.17 241.062 1920L187.142 1896.62C185.622 1895.96 184.922 1894.19 185.582 1892.67C186.072 1891.54 187.182 1890.86 188.332 1890.86ZM188.332 1887.86C185.942 1887.86 183.782 1889.28 182.822 1891.47C182.182 1892.94 182.152 1894.57 182.742 1896.06C183.332 1897.55 184.462 1898.72 185.932 1899.36L239.852 1922.74C240.612 1923.07 241.412 1923.24 242.242 1923.24C244.632 1923.24 246.792 1921.82 247.752 1919.63C248.392 1918.16 248.412 1916.53 247.832 1915.04C247.242 1913.55 246.112 1912.38 244.642 1911.74L190.722 1888.36C189.962 1888.03 189.162 1887.86 188.332 1887.86Z" fill="black"/>
<path d="M192.142 1889.83C189.792 1889.83 187.862 1888.06 187.662 1885.72C187.562 1884.52 187.922 1883.36 188.702 1882.43C189.472 1881.51 190.562 1880.95 191.762 1880.84L257.332 1875.15C257.462 1875.14 257.602 1875.13 257.732 1875.13C260.042 1875.13 262.002 1876.94 262.202 1879.24C262.302 1880.44 261.942 1881.6 261.162 1882.53C260.392 1883.45 259.302 1884.01 258.102 1884.12L192.532 1889.81C192.402 1889.82 192.272 1889.83 192.142 1889.83Z" fill="white"/>
<path d="M257.732 1876.64C259.262 1876.64 260.572 1877.82 260.712 1879.38C260.852 1881.03 259.632 1882.49 257.982 1882.63L192.412 1888.32C192.322 1888.32 192.232 1888.33 192.152 1888.33C190.612 1888.33 189.302 1887.15 189.162 1885.59C189.022 1883.94 190.242 1882.48 191.892 1882.34L257.462 1876.65C257.552 1876.65 257.642 1876.64 257.732 1876.64ZM257.732 1873.64C257.552 1873.64 257.372 1873.64 257.182 1873.67L191.622 1879.36C190.022 1879.5 188.582 1880.25 187.552 1881.48C186.522 1882.71 186.032 1884.26 186.172 1885.86C186.442 1888.99 189.012 1891.34 192.142 1891.34C192.312 1891.34 192.492 1891.34 192.672 1891.32L258.242 1885.63C259.842 1885.49 261.282 1884.74 262.312 1883.51C263.342 1882.28 263.832 1880.73 263.692 1879.13C263.422 1876.06 260.802 1873.65 257.732 1873.65V1873.64Z" fill="black"/>
<path d="M251.462 1898.49C250.842 1898.49 250.242 1898.36 249.672 1898.12L195.762 1874.74C194.662 1874.26 193.812 1873.38 193.362 1872.27C192.922 1871.15 192.942 1869.93 193.422 1868.83C194.132 1867.18 195.762 1866.12 197.552 1866.12C198.172 1866.12 198.772 1866.24 199.342 1866.49L253.262 1889.87C254.362 1890.35 255.212 1891.23 255.662 1892.34C256.112 1893.45 256.082 1894.68 255.602 1895.78C254.892 1897.43 253.272 1898.49 251.472 1898.49H251.462Z" fill="white"/>
<path d="M197.552 1867.61C197.952 1867.61 198.352 1867.69 198.742 1867.86L252.662 1891.24C254.182 1891.9 254.882 1893.67 254.222 1895.19C253.732 1896.32 252.632 1897 251.472 1897C251.072 1897 250.672 1896.92 250.282 1896.75L196.362 1873.37C194.842 1872.71 194.142 1870.94 194.802 1869.42C195.292 1868.29 196.402 1867.61 197.552 1867.61ZM197.552 1864.61C195.162 1864.61 193.002 1866.03 192.042 1868.22C191.402 1869.69 191.382 1871.32 191.962 1872.81C192.552 1874.3 193.682 1875.47 195.152 1876.11L249.072 1899.49C249.832 1899.82 250.632 1899.99 251.462 1899.99C253.852 1899.99 256.012 1898.57 256.972 1896.38C257.612 1894.91 257.632 1893.28 257.052 1891.79C256.462 1890.3 255.332 1889.13 253.862 1888.49L199.942 1865.11C199.182 1864.78 198.382 1864.61 197.562 1864.61H197.552Z" fill="black"/>
<path d="M200.972 1865.38C198.622 1865.38 196.692 1863.61 196.492 1861.27C196.392 1860.07 196.752 1858.91 197.532 1857.98C198.302 1857.06 199.392 1856.5 200.592 1856.39L266.162 1850.7C266.292 1850.69 266.422 1850.68 266.542 1850.68C268.902 1850.68 270.832 1852.45 271.032 1854.79C271.132 1855.99 270.762 1857.15 269.992 1858.08C269.222 1859 268.132 1859.56 266.932 1859.67L201.362 1865.36C201.232 1865.37 201.102 1865.38 200.972 1865.38Z" fill="white"/>
<path d="M266.542 1852.19C268.082 1852.19 269.402 1853.36 269.542 1854.93C269.682 1856.58 268.462 1858.04 266.812 1858.18L201.242 1863.87C201.152 1863.87 201.062 1863.88 200.982 1863.88C199.442 1863.88 198.132 1862.7 197.992 1861.14C197.852 1859.49 199.072 1858.03 200.722 1857.89L266.292 1852.2C266.372 1852.2 266.462 1852.19 266.542 1852.19ZM266.542 1849.19C266.372 1849.19 266.212 1849.19 266.042 1849.21L200.462 1854.9C198.862 1855.04 197.422 1855.79 196.392 1857.02C195.362 1858.25 194.872 1859.8 195.012 1861.4C195.282 1864.53 197.852 1866.88 200.982 1866.88C201.152 1866.88 201.332 1866.88 201.512 1866.86L267.082 1861.17C268.682 1861.03 270.122 1860.28 271.152 1859.05C272.182 1857.82 272.672 1856.27 272.532 1854.67C272.262 1851.55 269.692 1849.19 266.552 1849.19H266.542Z" fill="black"/>
<path d="M260.292 1874.04C259.672 1874.04 259.072 1873.91 258.502 1873.67L204.592 1850.29C203.492 1849.81 202.642 1848.93 202.192 1847.82C201.742 1846.71 201.772 1845.48 202.252 1844.38C202.962 1842.73 204.582 1841.67 206.382 1841.67C207.002 1841.67 207.602 1841.8 208.172 1842.04L262.082 1865.42C263.182 1865.9 264.032 1866.78 264.482 1867.89C264.932 1869 264.902 1870.23 264.422 1871.33C263.712 1872.98 262.092 1874.04 260.292 1874.04Z" fill="white"/>
<path d="M206.382 1843.16C206.782 1843.16 207.182 1843.24 207.572 1843.41L261.492 1866.79C263.012 1867.45 263.712 1869.22 263.052 1870.74C262.562 1871.87 261.462 1872.55 260.302 1872.55C259.902 1872.55 259.502 1872.47 259.112 1872.3L205.192 1848.92C203.672 1848.26 202.972 1846.49 203.632 1844.97C204.122 1843.84 205.222 1843.16 206.382 1843.16ZM206.382 1840.16C203.992 1840.16 201.832 1841.58 200.872 1843.77C200.232 1845.24 200.212 1846.87 200.792 1848.36C201.382 1849.85 202.512 1851.02 203.982 1851.66L257.902 1875.04C258.662 1875.37 259.462 1875.54 260.292 1875.54C262.682 1875.54 264.842 1874.12 265.802 1871.93C266.442 1870.46 266.462 1868.83 265.882 1867.34C265.292 1865.85 264.162 1864.68 262.692 1864.04L208.772 1840.66C208.012 1840.33 207.212 1840.16 206.382 1840.16Z" fill="black"/>
<path d="M488.192 1904.28C488.192 1904.28 485.742 1938.15 493.952 1945.14C498.262 1948.81 505.932 1951.91 512.242 1954.01C518.342 1956.05 522.582 1961.58 523.062 1967.99C523.952 1979.82 526.322 1997.68 532.612 2003.11C542.292 2011.46 560.882 2016.59 605.162 2014.41C649.442 2012.23 660.762 1979.81 646.002 1945.4" fill="white"/>
<path d="M586.372 2016.92C558.322 2016.92 541.012 2012.99 531.312 2004.63C524.682 1998.92 522.082 1981.64 521.072 1968.15C520.652 1962.5 516.932 1957.69 511.612 1955.92C502.772 1952.97 496.402 1949.85 492.662 1946.67C483.932 1939.23 485.952 1907.71 486.202 1904.14L490.192 1904.43C489.532 1913.57 489.152 1938.43 495.252 1943.63C498.552 1946.44 504.642 1949.38 512.882 1952.13C519.732 1954.42 524.512 1960.59 525.062 1967.86C526.392 1985.6 529.622 1997.9 533.932 2001.61C544.802 2010.98 566.752 2014.32 605.082 2012.43C623.772 2011.51 637.432 2004.98 644.572 1993.54C652.072 1981.52 651.932 1964.27 644.182 1946.2L647.862 1944.62C656.262 1964.19 656.292 1982.32 647.962 1995.66C640.092 2008.26 625.332 2015.44 605.282 2016.43C598.502 2016.76 592.212 2016.93 586.382 2016.93L586.372 2016.92Z" fill="black"/>
<path d="M484.262 1834.47C484.262 1834.47 477.062 1893.87 495.102 1919.1C513.142 1944.33 519.352 1944.06 532.632 1963.84C545.912 1983.62 559.722 1989.24 585.162 1989.28C610.602 1989.32 649.282 1982.01 646.022 1945.41C642.752 1908.81 595.472 1900.1 584.492 1881.35C573.512 1862.6 570.652 1835.45 570.652 1835.45" fill="white"/>
<path d="M585.352 1991.28H585.152C557.832 1991.24 544.162 1984.6 530.972 1964.95C524.592 1955.45 519.962 1950.74 514.602 1945.3C509.062 1939.67 502.792 1933.3 493.472 1920.26C485.752 1909.47 481.532 1891.67 480.912 1867.37C480.462 1849.43 482.252 1834.37 482.272 1834.22L486.242 1834.7C486.172 1835.29 479.342 1893.62 496.722 1917.92C505.862 1930.7 512.022 1936.96 517.452 1942.48C522.722 1947.83 527.692 1952.89 534.282 1962.71C546.742 1981.26 559.102 1987.23 585.152 1987.27H585.322C596.372 1987.27 623.052 1985.68 636.292 1971.23C642.342 1964.62 644.942 1955.99 644.012 1945.57C642.042 1923.54 623.162 1911.92 606.502 1901.68C596.502 1895.53 587.062 1889.73 582.742 1882.35C571.672 1863.45 568.762 1836.77 568.642 1835.65L572.622 1835.23C572.652 1835.5 575.572 1862.19 586.202 1880.33C590.022 1886.85 599.042 1892.4 608.602 1898.28C626.062 1909.02 645.852 1921.19 648.002 1945.22C649.032 1956.8 646.092 1966.46 639.242 1973.93C625.442 1988.99 599.642 1991.27 585.352 1991.27V1991.28Z" fill="black"/>
<path d="M556.612 2012.84C556.612 2012.84 581.402 2007.25 585.752 1996.6C590.102 1985.95 592.861 1977.92 602.131 1976.68C611.401 1975.44 625.951 1991.82 633.401 1994.18C640.851 1996.54 648.052 1991.79 648.052 1991.79C648.052 1991.79 644.222 2015.85 611.502 2017.25C578.782 2018.65 556.602 2012.83 556.602 2012.83L556.612 2012.84Z" fill="black"/>
<path d="M601.202 2019.48C574.362 2019.48 556.912 2014.99 556.102 2014.77L548.182 2012.69L556.172 2010.88C562.782 2009.38 580.662 2003.77 583.902 1995.84L584.582 1994.16C588.692 1984.03 591.942 1976.03 601.872 1974.7C608.372 1973.83 616.402 1979.96 623.492 1985.38C627.592 1988.51 631.462 1991.47 634.012 1992.28C640.432 1994.31 646.892 1990.17 646.962 1990.13L650.742 1987.67L650.042 1992.12C650.002 1992.38 645.572 2017.81 611.602 2019.27C608.002 2019.42 604.542 2019.49 601.212 2019.49L601.202 2019.48ZM565.002 2012.51C574.172 2014.09 590.712 2016.15 611.412 2015.26C634.192 2014.28 642.182 2002.08 644.832 1995.54C641.742 1996.66 637.342 1997.53 632.792 1996.09C629.572 1995.07 625.622 1992.05 621.052 1988.56C614.902 1983.86 607.252 1978.02 602.392 1978.67C594.762 1979.69 592.182 1986.05 588.282 1995.67L587.592 1997.36C585.582 2002.29 579.752 2006.74 570.292 2010.57C568.442 2011.32 566.652 2011.96 565.002 2012.51Z" fill="black"/>
<path d="M483.992 1881.73C483.992 1881.73 490.452 1909.69 503.772 1910.53C511.662 1911.03 515.232 1903.49 516.842 1897.25C517.322 1895.37 520.012 1895.38 520.512 1897.25C524.002 1910.28 528.972 1935.72 518.052 1945.97L497.282 1922.11C497.282 1922.11 482.632 1897.01 483.992 1881.74V1881.73Z" fill="#FFF243"/>
<path d="M517.902 1948.84L495.552 1923.11C494.942 1922.06 480.592 1897.28 482.002 1881.55L483.112 1869.08L485.942 1881.27C487.652 1888.64 494.212 1907.91 503.902 1908.53C510.392 1908.95 513.472 1902.35 514.912 1896.75C515.362 1895.02 516.862 1893.85 518.652 1893.84H518.672C520.462 1893.84 521.982 1895 522.442 1896.73C526.272 1911.01 530.972 1936.59 519.422 1947.42L517.912 1948.84H517.902ZM498.912 1920.93L518.092 1942.96C526.452 1932.35 521.452 1908.6 518.682 1898.13C516.072 1907.87 510.732 1912.98 503.652 1912.52C497.992 1912.16 493.522 1907.72 490.142 1902.34C493.662 1911.63 498.212 1919.71 498.912 1920.93Z" fill="black"/>
<path d="M560.272 1932.23C539.762 1932.23 521.542 1891.1 519.512 1886.35C513.642 1872.66 505.932 1839.71 505.602 1838.32L509.502 1837.41C509.582 1837.75 517.462 1871.4 523.192 1884.78C529.772 1900.14 546.132 1928.96 560.852 1928.22C585.322 1926.96 593.382 1924.65 592.902 1913.4C592.622 1906.77 590.782 1903.23 588.012 1897.86C585.292 1892.6 581.572 1885.4 577.782 1872.11L581.632 1871.01C585.312 1883.91 588.782 1890.62 591.572 1896.01C594.482 1901.63 596.582 1905.7 596.902 1913.21C597.632 1930.32 580.692 1931.19 561.062 1932.2C560.802 1932.21 560.542 1932.22 560.282 1932.22L560.272 1932.23Z" fill="black"/>
<path d="M606.172 1976.68C606.142 1976.47 602.872 1955.69 583.702 1928.18L586.982 1925.89C606.742 1954.25 610.002 1975.22 610.132 1976.1L606.172 1976.68Z" fill="black"/>
<path d="M592.202 1979.41C592.172 1979.2 588.902 1958.42 569.732 1930.91L573.012 1928.62C592.772 1956.98 596.032 1977.95 596.162 1978.83L592.202 1979.41Z" fill="black"/>
<path d="M541.982 1929.5C539.702 1929.5 537.782 1927.79 537.512 1925.53C537.222 1923.06 538.992 1920.82 541.452 1920.53L598.202 1913.86C598.382 1913.84 598.552 1913.83 598.732 1913.83C601.012 1913.83 602.932 1915.54 603.192 1917.8C603.482 1920.27 601.712 1922.51 599.252 1922.8L542.502 1929.47C542.322 1929.49 542.142 1929.5 541.972 1929.5H541.982Z" fill="white"/>
<path d="M598.732 1915.33C600.232 1915.33 601.532 1916.45 601.712 1917.98C601.902 1919.63 600.732 1921.12 599.082 1921.31L542.332 1927.98C542.212 1927.99 542.092 1928 541.982 1928C540.482 1928 539.182 1926.88 539.002 1925.35C538.812 1923.7 539.982 1922.21 541.632 1922.02L598.382 1915.35C598.502 1915.34 598.622 1915.33 598.732 1915.33ZM598.732 1912.33C598.492 1912.33 598.262 1912.34 598.022 1912.37L541.282 1919.04C539.692 1919.23 538.262 1920.02 537.272 1921.28C536.282 1922.54 535.832 1924.11 536.022 1925.7C536.382 1928.72 538.942 1931 541.982 1931C542.212 1931 542.442 1930.99 542.682 1930.96L599.442 1924.28C601.032 1924.09 602.462 1923.3 603.452 1922.04C604.442 1920.78 604.892 1919.21 604.702 1917.62C604.342 1914.6 601.782 1912.32 598.752 1912.32L598.732 1912.33Z" fill="black"/>
<path d="M594.882 1913.09C594.752 1913.09 594.622 1913.09 594.482 1913.07L528.912 1907.38C527.712 1907.28 526.632 1906.71 525.852 1905.79C525.082 1904.87 524.712 1903.7 524.812 1902.5C525.012 1900.2 526.982 1898.39 529.292 1898.39C529.422 1898.39 529.552 1898.39 529.682 1898.41L595.252 1904.1C596.452 1904.2 597.532 1904.77 598.312 1905.69C599.082 1906.61 599.452 1907.78 599.352 1908.98C599.152 1911.32 597.222 1913.09 594.872 1913.09H594.882Z" fill="white"/>
<path d="M529.302 1899.89C529.392 1899.89 529.472 1899.89 529.562 1899.9L595.132 1905.59C596.782 1905.73 598.002 1907.19 597.862 1908.84C597.722 1910.4 596.412 1911.58 594.872 1911.58C594.782 1911.58 594.702 1911.58 594.612 1911.57L529.042 1905.88C527.392 1905.74 526.172 1904.28 526.312 1902.63C526.452 1901.07 527.762 1899.89 529.302 1899.89ZM529.302 1896.89C526.212 1896.89 523.592 1899.3 523.322 1902.37C523.182 1903.97 523.672 1905.52 524.702 1906.75C525.732 1907.98 527.182 1908.73 528.782 1908.87L594.352 1914.56C594.522 1914.58 594.702 1914.58 594.872 1914.58C598.002 1914.58 600.572 1912.22 600.842 1909.1C600.982 1907.5 600.492 1905.95 599.462 1904.72C598.432 1903.49 596.982 1902.74 595.382 1902.6L529.812 1896.91C529.632 1896.89 529.462 1896.89 529.292 1896.89H529.302Z" fill="black"/>
<path d="M535.562 1921.74C533.772 1921.74 532.142 1920.68 531.432 1919.03C530.952 1917.93 530.932 1916.7 531.372 1915.59C531.812 1914.48 532.662 1913.59 533.772 1913.12L587.692 1889.74C588.262 1889.49 588.862 1889.37 589.482 1889.37C591.272 1889.37 592.902 1890.43 593.612 1892.08C594.092 1893.18 594.112 1894.41 593.672 1895.52C593.232 1896.64 592.382 1897.52 591.272 1897.99L537.352 1921.37C536.782 1921.62 536.182 1921.74 535.562 1921.74Z" fill="white"/>
<path d="M589.472 1890.86C590.632 1890.86 591.732 1891.54 592.222 1892.67C592.882 1894.19 592.182 1895.96 590.662 1896.62L536.742 1920C536.352 1920.17 535.952 1920.25 535.552 1920.25C534.392 1920.25 533.292 1919.57 532.802 1918.44C532.142 1916.92 532.842 1915.15 534.362 1914.49L588.282 1891.11C588.672 1890.94 589.072 1890.86 589.472 1890.86ZM589.472 1887.86C588.652 1887.86 587.842 1888.03 587.082 1888.36L533.162 1911.74C531.692 1912.38 530.562 1913.55 529.972 1915.04C529.382 1916.53 529.412 1918.16 530.052 1919.63C531.002 1921.82 533.162 1923.24 535.562 1923.24C536.382 1923.24 537.192 1923.07 537.952 1922.74L591.862 1899.36C593.332 1898.72 594.462 1897.55 595.052 1896.06C595.642 1894.57 595.612 1892.94 594.972 1891.47C594.022 1889.27 591.862 1887.86 589.462 1887.86H589.472Z" fill="black"/>
<path d="M585.662 1889.83C585.532 1889.83 585.402 1889.83 585.262 1889.81L519.692 1884.12C518.492 1884.02 517.412 1883.45 516.632 1882.53C515.862 1881.61 515.492 1880.44 515.592 1879.24C515.792 1876.93 517.752 1875.13 520.062 1875.13C520.202 1875.13 520.332 1875.13 520.472 1875.15L586.042 1880.84C587.242 1880.94 588.322 1881.51 589.102 1882.43C589.872 1883.35 590.242 1884.52 590.142 1885.72C589.942 1888.06 588.012 1889.83 585.662 1889.83Z" fill="white"/>
<path d="M520.072 1876.64C520.162 1876.64 520.252 1876.64 520.342 1876.65L585.912 1882.34C587.562 1882.48 588.782 1883.94 588.642 1885.59C588.502 1887.15 587.192 1888.33 585.652 1888.33C585.562 1888.33 585.482 1888.33 585.392 1888.32L519.822 1882.63C518.172 1882.49 516.952 1881.03 517.092 1879.38C517.232 1877.82 518.542 1876.64 520.072 1876.64ZM520.072 1873.64C516.992 1873.64 514.372 1876.05 514.112 1879.12C513.972 1880.72 514.462 1882.27 515.492 1883.5C516.522 1884.73 517.972 1885.48 519.572 1885.62L585.142 1891.31C585.312 1891.33 585.492 1891.33 585.662 1891.33C588.792 1891.33 591.362 1888.97 591.632 1885.85C591.772 1884.25 591.282 1882.7 590.252 1881.47C589.222 1880.24 587.772 1879.49 586.172 1879.35L520.602 1873.66C520.432 1873.64 520.252 1873.64 520.072 1873.64Z" fill="black"/>
<path d="M526.342 1898.49C524.552 1898.49 522.922 1897.43 522.212 1895.78C521.732 1894.68 521.712 1893.45 522.152 1892.34C522.592 1891.23 523.442 1890.34 524.552 1889.87L578.472 1866.49C579.042 1866.24 579.642 1866.12 580.262 1866.12C582.052 1866.12 583.682 1867.18 584.392 1868.83C584.872 1869.93 584.892 1871.16 584.452 1872.27C584.012 1873.39 583.162 1874.27 582.052 1874.74L528.132 1898.12C527.562 1898.37 526.962 1898.49 526.342 1898.49Z" fill="white"/>
<path d="M580.262 1867.61C581.422 1867.61 582.522 1868.29 583.012 1869.42C583.672 1870.94 582.972 1872.71 581.452 1873.37L527.532 1896.75C527.142 1896.92 526.742 1897 526.342 1897C525.182 1897 524.082 1896.32 523.592 1895.19C522.932 1893.67 523.632 1891.9 525.152 1891.24L579.072 1867.86C579.462 1867.69 579.862 1867.61 580.262 1867.61ZM580.262 1864.61C579.442 1864.61 578.632 1864.78 577.872 1865.11L523.962 1888.49C522.492 1889.13 521.362 1890.3 520.772 1891.79C520.182 1893.28 520.212 1894.91 520.852 1896.38C521.802 1898.57 523.962 1899.99 526.362 1899.99C527.182 1899.99 527.992 1899.82 528.752 1899.49L582.662 1876.11C584.132 1875.47 585.262 1874.3 585.852 1872.81C586.442 1871.32 586.412 1869.69 585.772 1868.22C584.822 1866.03 582.662 1864.61 580.262 1864.61Z" fill="black"/>
<path d="M576.832 1865.38C576.702 1865.38 576.572 1865.38 576.432 1865.36L510.862 1859.67C509.662 1859.57 508.582 1859 507.802 1858.08C507.032 1857.16 506.662 1855.99 506.762 1854.79C506.962 1852.45 508.892 1850.68 511.252 1850.68C511.372 1850.68 511.502 1850.68 511.632 1850.7L577.212 1856.39C578.412 1856.49 579.492 1857.06 580.272 1857.98C581.042 1858.9 581.412 1860.07 581.312 1861.27C581.112 1863.61 579.182 1865.38 576.832 1865.38Z" fill="white"/>
<path d="M511.262 1852.19C511.342 1852.19 511.432 1852.19 511.512 1852.2L577.082 1857.89C578.732 1858.03 579.952 1859.49 579.812 1861.14C579.672 1862.7 578.362 1863.88 576.822 1863.88C576.732 1863.88 576.652 1863.88 576.562 1863.87L510.992 1858.18C509.342 1858.04 508.122 1856.58 508.262 1854.93C508.402 1853.36 509.712 1852.19 511.262 1852.19ZM511.262 1849.19C508.122 1849.19 505.552 1851.55 505.282 1854.67C505.142 1856.27 505.632 1857.82 506.662 1859.05C507.692 1860.28 509.142 1861.03 510.742 1861.17L576.312 1866.86C576.482 1866.88 576.662 1866.88 576.832 1866.88C579.962 1866.88 582.532 1864.52 582.802 1861.4C582.942 1859.8 582.452 1858.25 581.422 1857.02C580.392 1855.79 578.942 1855.04 577.342 1854.9L511.772 1849.21C511.592 1849.2 511.422 1849.19 511.262 1849.19Z" fill="black"/>
<path d="M517.512 1874.04C515.722 1874.04 514.092 1872.98 513.382 1871.33C512.902 1870.23 512.882 1869 513.322 1867.89C513.762 1866.78 514.612 1865.89 515.722 1865.42L569.642 1842.04C570.212 1841.79 570.812 1841.67 571.432 1841.67C573.222 1841.67 574.852 1842.73 575.562 1844.38C576.042 1845.48 576.062 1846.71 575.622 1847.82C575.182 1848.93 574.332 1849.82 573.222 1850.29L519.302 1873.67C518.732 1873.92 518.132 1874.04 517.512 1874.04Z" fill="white"/>
<path d="M571.432 1843.16C572.592 1843.16 573.692 1843.84 574.182 1844.97C574.842 1846.49 574.142 1848.26 572.622 1848.92L518.702 1872.3C518.312 1872.47 517.912 1872.55 517.512 1872.55C516.352 1872.55 515.252 1871.87 514.762 1870.74C514.102 1869.22 514.802 1867.45 516.322 1866.79L570.242 1843.41C570.632 1843.24 571.032 1843.16 571.432 1843.16ZM571.432 1840.16C570.602 1840.16 569.802 1840.33 569.042 1840.66L515.132 1864.04C513.662 1864.68 512.532 1865.85 511.942 1867.34C511.352 1868.83 511.382 1870.46 512.022 1871.93C512.972 1874.12 515.132 1875.54 517.532 1875.54C518.352 1875.54 519.162 1875.37 519.922 1875.04L573.832 1851.66C575.302 1851.02 576.432 1849.85 577.022 1848.36C577.612 1846.87 577.582 1845.24 576.942 1843.77C575.992 1841.58 573.832 1840.16 571.432 1840.16Z" fill="black"/>
<path d="M282.142 1854.84C279.272 1854.84 276.782 1854.35 274.782 1853.73C269.662 1852.15 266.612 1849.41 266.482 1849.3L269.172 1846.34L267.832 1847.82L269.172 1846.33C269.592 1846.7 279.562 1855.38 293.752 1847.71L295.652 1851.23C290.632 1853.94 286.042 1854.84 282.152 1854.84H282.142Z" fill="black"/>
<path d="M463.492 1783.26C463.492 1783.26 451.942 1784.74 451.662 1794.91C451.322 1807.06 446.762 1813.23 457.212 1826.5C467.662 1839.77 515.942 1838.64 527.802 1838.64C539.662 1838.64 587.942 1842.03 591.332 1814.64C594.722 1787.25 582.222 1778.22 582.222 1778.22" fill="white"/>
<path d="M538.372 1840.78C535.732 1840.78 533.362 1840.74 531.402 1840.7C529.982 1840.67 528.762 1840.65 527.792 1840.65C527.052 1840.65 526.172 1840.65 525.172 1840.65C499.802 1840.76 464.952 1839.57 455.632 1827.74C447.152 1816.97 447.992 1810.27 448.972 1802.51C449.272 1800.12 449.582 1797.66 449.662 1794.86C449.922 1785.47 458.652 1781.87 463.242 1781.28L463.752 1785.25L463.502 1783.27L463.762 1785.25C463.362 1785.3 453.902 1786.67 453.672 1794.97C453.592 1797.96 453.252 1800.64 452.952 1803.01C452.022 1810.45 451.342 1815.82 458.792 1825.27C467.982 1836.94 511.032 1836.72 525.172 1836.66C526.182 1836.66 527.072 1836.66 527.812 1836.66C528.802 1836.66 530.052 1836.68 531.502 1836.71C546.542 1837 586.472 1837.75 589.362 1814.41C592.632 1788.01 581.232 1779.97 581.122 1779.89L583.362 1776.58C583.912 1776.96 596.892 1786.1 593.332 1814.9C590.412 1838.51 557.302 1840.79 538.402 1840.79L538.372 1840.78Z" fill="black"/>
<path d="M184.572 1778.23C184.572 1778.23 171.672 1786.73 175.222 1814.65C178.772 1842.57 228.292 1838.65 240.472 1838.65C252.652 1838.65 302.242 1839.78 312.972 1826.51C323.702 1813.24 319.012 1807.07 318.672 1794.92C318.582 1791.63 317.272 1789.25 315.552 1787.54" fill="white"/>
<path d="M229.602 1840.78C210.212 1840.78 176.232 1838.5 173.232 1814.9C169.572 1786.08 182.902 1776.94 183.472 1776.56L185.682 1779.89C185.562 1779.97 173.882 1788.25 177.202 1814.39C180.172 1837.73 221.232 1836.97 236.682 1836.69C238.172 1836.66 239.452 1836.64 240.462 1836.64C241.222 1836.64 242.132 1836.64 243.172 1836.64C257.712 1836.71 301.952 1836.93 311.402 1825.23C319.042 1815.79 318.352 1810.42 317.392 1803C317.092 1800.63 316.742 1797.95 316.652 1794.96C316.582 1792.54 315.752 1790.57 314.122 1788.94L316.942 1786.1C319.302 1788.45 320.552 1791.39 320.652 1794.85C320.732 1797.64 321.052 1800.11 321.352 1802.5C322.352 1810.27 323.222 1816.99 314.502 1827.76C304.942 1839.58 269.202 1840.77 243.142 1840.65C242.112 1840.65 241.212 1840.65 240.452 1840.65C239.452 1840.65 238.202 1840.67 236.742 1840.7C234.722 1840.74 232.302 1840.78 229.592 1840.78H229.602Z" fill="black"/>
<path d="M152.132 1034.7L186.712 1799.39C186.712 1799.39 238.662 1818.59 313.202 1807.3L397.912 1203.07L464.552 1792.62C464.552 1792.62 557.162 1814.08 582.012 1784.71L606.622 1026.43" fill="black"/>
<path d="M266.552 1812.83C218.002 1812.83 186.422 1801.43 186.022 1801.28L184.782 1800.82L150.142 1034.8L154.142 1034.62L188.662 1797.98C207.292 1804.5 254.902 1813.84 311.442 1805.56L398.132 1187.16L466.382 1790.99C477.842 1793.45 557.262 1809.42 580.042 1783.95L604.632 1026.38L608.632 1026.51L584.002 1785.48L583.552 1786.01C558.212 1815.96 467.942 1795.46 464.112 1794.57L462.732 1794.25L397.712 1218.99L314.992 1809.05L313.522 1809.27C296.642 1811.83 280.862 1812.82 266.572 1812.82L266.552 1812.83Z" fill="black"/>
<path d="M475.582 54.2798H296.272V266.23H475.582V54.2798Z" fill="white"/>
<path d="M297.772 148.61V209.6C280.932 209.6 267.282 195.95 267.282 179.11C267.282 162.27 280.932 148.62 297.772 148.62V148.61Z" fill="white"/>
<path d="M474.052 148.61V209.6C490.892 209.6 504.542 195.95 504.542 179.11C504.542 162.27 490.892 148.62 474.052 148.62V148.61Z" fill="white"/>
<path d="M385.662 165.58C384.282 165.58 383.162 164.46 383.162 163.08V135.21C383.162 133.83 384.282 132.71 385.662 132.71C387.042 132.71 388.162 133.83 388.162 135.21V163.08C388.162 164.46 387.042 165.58 385.662 165.58Z" fill="black"/>
<path d="M397.952 1210.97C397.952 1210.97 398.752 1134.17 393.102 1102.26L397.952 1210.97Z" fill="#907047"/>
<path d="M397.952 1213.47H397.922C396.542 1213.46 395.432 1212.32 395.452 1210.94C395.452 1210.17 396.182 1134.01 390.642 1102.7C390.402 1101.34 391.312 1100.04 392.672 1099.8C394.032 1099.55 395.332 1100.47 395.572 1101.83C401.192 1133.6 400.492 1207.85 400.452 1211C400.442 1212.37 399.322 1213.47 397.952 1213.47Z" fill="black"/>
<path d="M718.472 615.41C708.312 501.9 658.892 403.65 608.352 362.14C558.502 321.2 471.542 309.93 469.172 309.63C469.132 309.63 469.102 309.63 469.072 309.63H306.502C302.582 309.63 298.702 309.77 294.862 310.03C294.862 310.03 184.552 322.62 148.412 359.32C112.272 396.02 -54.8783 530.99 21.9217 624.73C64.2517 676.4 122.762 681.39 179.862 639.46C180.472 639.01 181.332 639.49 181.252 640.25L141.832 1019.46C141.832 1019.46 141.832 1019.54 141.832 1019.58C141.862 1028.57 149.162 1035.84 158.152 1035.84H592.352C601.362 1035.84 608.672 1028.53 608.672 1019.52L609.112 1002.68C609.122 1002.13 609.642 1001.73 610.182 1001.85L685.152 1019.13C690.012 1020.23 694.812 1017.06 695.702 1012.16L703.252 970.75C703.802 967.75 705.412 965.04 707.802 963.13C710.852 960.69 712.732 957.09 712.982 953.2C715.432 915.98 727.682 717.97 718.502 615.41H718.472Z" fill="#FFF243"/>
<path d="M592.322 1037.84H158.122C148.052 1037.84 139.842 1029.65 139.802 1019.59C139.802 1019.48 139.802 1019.37 139.822 1019.27L178.982 642.57C151.132 662.46 122.192 671.66 95.1618 669.2C67.3018 666.66 41.4318 651.72 20.3618 626.01C-9.42822 589.64 -6.5182 542.94 29.0118 487.2C58.1618 441.48 103.012 399.45 129.802 374.34C136.782 367.8 142.812 362.14 146.972 357.93C183.192 321.14 290.092 308.57 294.622 308.05L298.042 307.66L297.962 307.85C300.852 307.71 303.702 307.63 306.492 307.63H469.062C469.192 307.63 469.302 307.63 469.432 307.65C473.072 308.11 559.542 319.48 609.622 360.6C635.532 381.88 660.662 417.52 680.372 460.95C701.782 508.13 715.642 561.48 720.462 615.23C729.642 717.7 717.482 914.85 714.942 953.33C714.652 957.77 712.492 961.91 709.012 964.69C707.002 966.3 705.642 968.57 705.182 971.1L697.632 1012.51C697.102 1015.42 695.452 1017.92 692.982 1019.55C690.512 1021.18 687.562 1021.72 684.672 1021.06L611.042 1004.09L610.632 1019.55C610.632 1029.6 602.412 1037.82 592.312 1037.82L592.322 1037.84ZM180.372 637.3C180.862 637.3 181.362 637.43 181.802 637.68C182.782 638.24 183.342 639.34 183.222 640.46L143.802 1019.67C143.832 1027.44 150.262 1033.84 158.122 1033.84H592.322C600.222 1033.84 606.642 1027.42 606.642 1019.52L607.082 1002.63C607.102 1001.76 607.512 1000.96 608.192 1000.43C608.872 999.9 609.752 999.71 610.592 999.9L685.562 1017.18C687.372 1017.59 689.222 1017.25 690.772 1016.23C692.322 1015.21 693.362 1013.63 693.692 1011.81L701.242 970.4C701.872 966.92 703.742 963.79 706.512 961.58C709.112 959.5 710.732 956.4 710.952 953.08C713.482 914.65 725.622 717.77 716.472 615.6C711.702 562.29 697.952 509.39 676.722 462.61C657.262 419.72 632.522 384.59 607.072 363.69C558.182 323.54 473.552 312.21 468.982 311.63H306.482C302.742 311.63 298.872 311.76 294.972 312.03H294.952C292.992 312.26 266.182 315.49 235.592 322.87C206.582 329.87 168.142 342.11 149.812 360.73C145.602 365.01 139.542 370.68 132.532 377.26C105.872 402.24 61.2518 444.06 32.3718 489.35C-2.12821 543.47 -5.1382 588.59 23.4418 623.47C43.8118 648.34 68.7318 662.77 95.5018 665.21C122.212 667.64 150.962 658.19 178.642 637.86C179.142 637.49 179.742 637.3 180.352 637.3H180.372ZM468.922 311.62C468.922 311.62 468.922 311.62 468.932 311.62C468.932 311.62 468.932 311.62 468.922 311.62Z" fill="black"/>
<path d="M225.012 486.28C219.122 486.28 210.902 484.48 199.712 478.63C180.962 468.82 162.642 441.289 155.642 429.909C154.182 427.539 153.832 424.929 154.602 422.159C157.372 412.179 174.612 403.18 175.342 402.8C176.322 402.29 177.532 402.679 178.032 403.659C178.542 404.639 178.152 405.849 177.172 406.349C172.612 408.709 160.362 416.34 158.442 423.23C157.972 424.91 158.172 426.399 159.032 427.809C165.862 438.909 183.682 465.74 201.552 475.09C222.932 486.27 231.822 481.52 234.032 479.8C238.562 476.27 252.512 450.74 254.212 443.95C254.482 442.88 255.562 442.23 256.642 442.49C257.712 442.76 258.362 443.84 258.102 444.92C256.372 451.84 242.032 478.65 236.492 482.96C234.732 484.33 231.132 486.289 225.002 486.289L225.012 486.28Z" fill="black"/>
<path d="M519.962 440.203L518.243 438.485C516.919 437.161 514.773 437.161 513.449 438.485L490.645 461.289C489.321 462.613 489.321 464.759 490.645 466.083L492.363 467.801C493.687 469.125 495.833 469.125 497.157 467.801L519.961 444.997C521.285 443.673 521.285 441.527 519.962 440.203Z" fill="#1D1D1B"/>
<path d="M518.249 467.79L519.967 466.071C521.291 464.748 521.291 462.601 519.967 461.277L497.163 438.473C495.839 437.149 493.693 437.149 492.369 438.473L490.651 440.191C489.327 441.515 489.327 443.661 490.651 444.985L513.455 467.79C514.779 469.113 516.925 469.114 518.249 467.79Z" fill="#1D1D1B"/>
<path d="M194.092 583.61C193.612 583.61 193.122 583.47 192.692 583.18C191.342 582.27 159.652 560.63 152.982 539.15C152.572 537.83 153.312 536.43 154.632 536.02C155.952 535.61 157.352 536.35 157.762 537.67C163.922 557.48 195.192 578.83 195.502 579.05C196.642 579.82 196.942 581.38 196.172 582.52C195.692 583.23 194.902 583.619 194.102 583.619L194.092 583.61Z" fill="black"/>
<path d="M190.942 590.55C190.942 590.55 172.402 592.06 159.602 583.49L190.942 590.55Z" fill="#E9E2CE"/>
<path d="M187.492 592.66C181.292 592.66 168.392 591.77 158.492 585.15L160.712 581.83C172.792 589.91 190.602 588.57 190.782 588.56L191.102 592.55C190.902 592.57 189.572 592.67 187.482 592.67L187.492 592.66Z" fill="black"/>
<path d="M609.112 1003.85C608.982 1003.85 608.842 1003.84 608.712 1003.81C607.632 1003.59 606.932 1002.53 607.152 1001.45C611.622 979.63 606.012 936.82 601.072 899.05C597.292 870.19 593.722 842.93 594.692 826.86C595.732 809.62 594.372 770.5 592.782 725.2C590.992 674 588.962 615.96 590.172 578.45C592.412 509.1 611.462 394.12 611.652 392.96C611.832 391.87 612.862 391.14 613.952 391.32C615.042 391.5 615.782 392.53 615.592 393.62C615.402 394.77 596.392 509.49 594.162 578.579C592.952 615.96 594.982 673.93 596.772 725.07C598.362 770.47 599.732 809.68 598.672 827.11C597.722 842.8 601.272 869.879 605.022 898.539C610.252 938.489 615.662 979.79 611.062 1002.26C610.872 1003.21 610.032 1003.86 609.102 1003.86L609.112 1003.85Z" fill="black"/>
<path d="M54.0016 491.28C53.4016 491.28 52.8016 491.01 52.4116 490.5C51.7416 489.62 51.9117 488.37 52.7817 487.7C56.2017 485.08 136.712 423.54 159.072 415.13C160.102 414.74 161.262 415.26 161.652 416.3C162.042 417.33 161.522 418.49 160.482 418.88C138.672 427.08 56.0517 490.24 55.2217 490.88C54.8617 491.16 54.4316 491.29 54.0116 491.29L54.0016 491.28Z" fill="black"/>
<path d="M596.732 789.059C596.352 789.059 595.962 788.95 595.622 788.72C594.702 788.11 594.452 786.87 595.062 785.95C595.312 785.57 621.052 747.809 674.182 746.289C675.292 746.249 676.202 747.13 676.242 748.23C676.282 749.33 675.402 750.249 674.302 750.289C623.312 751.749 598.642 787.8 598.402 788.17C598.012 788.75 597.382 789.059 596.732 789.059Z" fill="black"/>
<path d="M597.052 812.41C596.562 812.41 596.062 812.23 595.682 811.86C594.882 811.1 594.842 809.83 595.602 809.03C596.442 808.14 616.592 787.23 642.562 791.49C643.652 791.67 644.392 792.7 644.212 793.79C644.032 794.88 643.002 795.62 641.912 795.44C618.022 791.51 598.692 811.58 598.502 811.78C598.112 812.2 597.582 812.4 597.052 812.4V812.41Z" fill="black"/>
<path d="M707.492 965.87C706.682 965.87 705.912 965.369 705.612 964.559C705.362 963.899 699.452 948.8 676.562 945.28C652.862 941.64 617.602 953 617.252 953.11C616.202 953.45 615.072 952.879 614.732 951.829C614.392 950.779 614.962 949.649 616.012 949.309C617.492 948.829 652.512 937.529 677.172 941.329C702.522 945.229 709.102 962.45 709.362 963.19C709.742 964.23 709.212 965.38 708.172 965.76C707.942 965.84 707.712 965.88 707.482 965.88L707.492 965.87Z" fill="black"/>
<path d="M714.692 935.13C714.282 935.13 713.872 935.01 713.512 934.75C713.262 934.56 687.682 916.22 649.592 912.93C648.492 912.84 647.672 911.87 647.772 910.76C647.872 909.66 648.842 908.83 649.942 908.94C689.202 912.34 714.802 930.73 715.872 931.52C716.762 932.17 716.962 933.42 716.312 934.31C715.922 934.85 715.312 935.13 714.692 935.13Z" fill="black"/>
<path d="M714.692 910.67C714.092 910.67 713.492 910.4 713.102 909.88C712.962 909.7 700.792 894.33 666.522 891.08C665.422 890.98 664.612 890 664.722 888.9C664.822 887.8 665.812 887 666.902 887.1C703.132 890.53 715.772 906.77 716.292 907.46C716.962 908.34 716.782 909.6 715.902 910.26C715.542 910.53 715.122 910.66 714.702 910.66L714.692 910.67Z" fill="black"/>
<path d="M180.772 641.2C180.422 641.2 180.072 641.11 179.752 640.92C178.802 640.36 178.492 639.13 179.052 638.19C179.092 638.11 183.442 630.47 186.422 609.01C189.562 586.43 191.912 580.76 205.722 562.34C216.062 548.56 249.412 501.01 244.512 467.88C244.352 466.79 245.102 465.77 246.202 465.61C247.292 465.45 248.312 466.2 248.472 467.3C253.592 501.96 219.502 550.65 208.922 564.75C195.512 582.62 193.432 587.65 190.382 609.57C187.262 632.02 182.682 639.91 182.492 640.24C182.122 640.87 181.452 641.22 180.772 641.22V641.2Z" fill="black"/>
<path d="M395.872 1.5H375.482C338.212 1.5 296.272 23.8097 296.272 73.2397V75.5498L385.392 48.9497L475.582 75.5498V73.2397C475.582 23.2397 433.132 1.5 395.872 1.5Z" fill="#FFF243"/>
<path d="M294.772 77.5698V73.2397C294.772 50.1797 303.832 30.9599 320.982 17.6499C335.432 6.4299 355.292 0 375.482 0H395.872C416.192 0 436.142 6.34969 450.612 17.4297C467.932 30.6797 477.082 49.9797 477.082 73.2397V77.5596L385.392 50.52L294.772 77.5596V77.5698ZM385.392 47.3999L385.822 47.5298L474.092 73.5596V73.25C474.092 24.99 433.552 3.00977 395.882 3.00977H375.492C355.962 3.00977 336.762 9.20979 322.832 20.0298C306.442 32.7498 297.782 51.15 297.782 73.25V73.5498L385.402 47.3999H385.392Z" fill="black"/>
<path d="M385.662 48.6099C396.304 48.6099 404.932 39.9824 404.932 29.3398C404.932 18.6973 396.304 10.0698 385.662 10.0698C375.019 10.0698 366.392 18.6973 366.392 29.3398C366.392 39.9824 375.019 48.6099 385.662 48.6099Z" fill="black"/>
<path d="M283.172 103.23C274.492 94.87 269.972 82.6697 271.662 72.1597C272.922 64.2897 277.572 58.0596 284.752 54.5996C305.452 44.6196 342.692 38.6597 384.372 38.6597H386.442C428.122 38.6597 465.362 44.6196 486.052 54.5996C493.232 58.0596 497.882 64.2997 499.142 72.1597C500.822 82.6697 496.312 94.87 487.632 103.23L482.902 107.79L481.872 106.51C481.612 106.19 455.912 74.3696 437.122 74.3696H436.302L435.862 73.6797C435.862 73.6797 429.712 66.8599 386.442 66.8599H384.372C341.092 66.8599 334.962 73.6898 334.902 73.7598L334.462 74.4497L333.702 74.3799C314.902 74.3799 289.202 106.2 288.952 106.52L287.922 107.8L283.192 103.24L283.172 103.23Z" fill="#FFF243"/>
<path d="M386.432 40.1499C433.032 40.1499 467.742 47.4299 485.392 55.9399C503.142 64.4999 500.802 88.4299 486.572 102.15L483.022 105.57C483.022 105.57 456.842 72.8599 437.092 72.8599C437.092 72.8599 432.242 65.3496 386.412 65.3496H384.342C338.512 65.3496 333.662 72.8599 333.662 72.8599C313.912 72.8599 287.732 105.57 287.732 105.57L284.182 102.15C269.952 88.4399 267.622 64.4999 285.362 55.9399C303.012 47.4299 337.732 40.1499 384.322 40.1499H386.392M386.392 37.1499H384.322C342.432 37.1499 304.952 43.1597 284.052 53.2397C276.422 56.9197 271.472 63.5499 270.132 71.9199C268.372 82.8999 273.062 95.6196 282.082 104.31L285.632 107.73L288.002 110.01L290.062 107.44C290.312 107.12 315.572 75.8599 333.642 75.8599H335.272L336.032 74.6899C336.852 73.9699 344.562 68.3496 384.322 68.3496H386.392C426.152 68.3496 433.862 73.9699 434.682 74.6899L435.442 75.8599H437.072C444.392 75.8599 454.192 81.2497 465.422 91.4297C474.152 99.3497 480.592 107.36 480.652 107.44L482.712 110.01L485.082 107.73L488.632 104.31C497.652 95.6196 502.342 82.8999 500.582 71.9199C499.242 63.5499 494.302 56.9197 486.662 53.2397C465.772 43.1697 428.282 37.1499 386.392 37.1499Z" fill="black"/>
<path d="M292.632 209.6C277.972 209.6 266.042 195.63 266.042 178.46C266.042 161.29 277.972 147.32 292.632 147.32V151.32C280.172 151.32 270.042 163.49 270.042 178.46C270.042 193.43 280.172 205.6 292.632 205.6V209.6Z" fill="black"/>
<path d="M478.712 209.6V205.6C491.172 205.6 501.302 193.43 501.302 178.46C501.302 163.49 491.172 151.32 478.712 151.32V147.32C493.372 147.32 505.302 161.29 505.302 178.46C505.302 195.63 493.372 209.6 478.712 209.6Z" fill="black"/>
<path d="M495.322 184.52C494.942 184.52 494.552 184.37 494.262 184.08L482.222 172.04C481.632 171.45 481.632 170.5 482.222 169.92C482.812 169.33 483.762 169.33 484.342 169.92L496.382 181.96C496.972 182.55 496.972 183.5 496.382 184.08C496.092 184.37 495.702 184.52 495.322 184.52Z" fill="black"/>
<path d="M483.282 184.52C482.902 184.52 482.512 184.37 482.222 184.08C481.632 183.49 481.632 182.54 482.222 181.96L494.262 169.92C494.852 169.33 495.802 169.33 496.382 169.92C496.972 170.51 496.972 171.46 496.382 172.04L484.342 184.08C484.052 184.37 483.662 184.52 483.282 184.52Z" fill="black"/>
<path d="M287.882 184.52C287.502 184.52 287.112 184.37 286.822 184.08L274.782 172.04C274.192 171.45 274.192 170.5 274.782 169.92C275.372 169.33 276.322 169.33 276.902 169.92L288.942 181.96C289.532 182.55 289.532 183.5 288.942 184.08C288.652 184.37 288.262 184.52 287.882 184.52Z" fill="black"/>
<path d="M275.842 184.52C275.462 184.52 275.072 184.37 274.782 184.08C274.192 183.49 274.192 182.54 274.782 181.96L286.822 169.92C287.412 169.33 288.362 169.33 288.942 169.92C289.532 170.51 289.532 171.46 288.942 172.04L276.902 184.08C276.612 184.37 276.222 184.52 275.842 184.52Z" fill="black"/>
<path d="M328.822 140.04C327.972 140.04 327.132 139.69 326.542 139C325.472 137.75 325.602 135.86 326.852 134.78C327.452 134.26 341.812 122.16 363.642 131.26C365.172 131.9 365.892 133.65 365.252 135.18C364.612 136.71 362.852 137.43 361.332 136.79C343.042 129.16 331.262 138.9 330.772 139.32C330.202 139.8 329.512 140.04 328.822 140.04Z" fill="black"/>
<path d="M347.002 146.37C351.536 146.37 355.212 142.694 355.212 138.16C355.212 133.625 351.536 129.95 347.002 129.95C342.467 129.95 338.792 133.625 338.792 138.16C338.792 142.694 342.467 146.37 347.002 146.37Z" fill="black"/>
<path d="M442.592 138.72C442.102 138.72 441.612 138.6 441.152 138.35C423.642 128.72 410.632 137.47 410.502 137.56C409.142 138.5 407.272 138.16 406.332 136.8C405.392 135.44 405.732 133.57 407.092 132.63C407.742 132.18 423.322 121.69 444.052 133.09C445.502 133.89 446.032 135.71 445.232 137.16C444.682 138.15 443.662 138.71 442.602 138.71L442.592 138.72Z" fill="black"/>
<path d="M426.752 146.37C431.286 146.37 434.962 142.694 434.962 138.16C434.962 133.625 431.286 129.95 426.752 129.95C422.217 129.95 418.542 133.625 418.542 138.16C418.542 142.694 422.217 146.37 426.752 146.37Z" fill="black"/>
<path d="M352.212 171.21H339.092C326.262 171.21 315.822 160.77 315.822 147.94V126.37C315.822 119.59 321.342 114.07 328.122 114.07H363.182C369.962 114.07 375.482 119.59 375.482 126.37V147.94C375.482 160.77 365.042 171.21 352.212 171.21ZM328.122 119.07C324.102 119.07 320.822 122.34 320.822 126.37V147.94C320.822 158.01 329.012 166.21 339.092 166.21H352.212C362.282 166.21 370.482 158.02 370.482 147.94V126.37C370.482 122.35 367.212 119.07 363.182 119.07H328.122Z" fill="black"/>
<path d="M432.252 171.21H419.132C406.302 171.21 395.862 160.77 395.862 147.94V126.37C395.862 119.59 401.382 114.07 408.162 114.07H443.222C450.002 114.07 455.522 119.59 455.522 126.37V147.94C455.522 160.77 445.082 171.21 432.252 171.21ZM408.162 119.07C404.142 119.07 400.862 122.34 400.862 126.37V147.94C400.862 158.01 409.052 166.21 419.132 166.21H432.252C442.322 166.21 450.522 158.02 450.522 147.94V126.37C450.522 122.35 447.252 119.07 443.222 119.07H408.162Z" fill="black"/>
<path d="M398.372 126.23H372.612C371.232 126.23 370.112 125.11 370.112 123.73C370.112 122.35 371.232 121.23 372.612 121.23H398.372C399.752 121.23 400.872 122.35 400.872 123.73C400.872 125.11 399.752 126.23 398.372 126.23Z" fill="black"/>
<path d="M315.972 123.24H308.932C307.905 123.24 307.072 124.072 307.072 125.1V129.62C307.072 130.647 307.905 131.48 308.932 131.48H315.972C316.999 131.48 317.832 130.647 317.832 129.62V125.1C317.832 124.072 316.999 123.24 315.972 123.24Z" fill="black"/>
<path d="M308.932 131.48L292.632 151.96V142.64L307.072 125.1L310.382 127.36L308.932 131.48Z" fill="black"/>
<path d="M455.132 131.47H462.172C463.199 131.47 464.032 130.637 464.032 129.61V125.09C464.032 124.063 463.199 123.229 462.172 123.229H455.132C454.105 123.229 453.272 124.063 453.272 125.09V129.61C453.272 130.637 454.105 131.47 455.132 131.47Z" fill="black"/>
<path d="M462.172 131.48L478.472 151.96V142.64L464.032 125.1L460.722 127.36L462.172 131.48Z" fill="black"/>
<path d="M483.432 105.56C483.432 105.56 465.642 65.8496 405.222 65.8496C405.222 65.8496 437.882 68.8399 460.942 97.9399C484.002 127.04 473.182 142.56 473.182 142.56L474.302 142.59L473.212 193.46C473.212 199.57 471.642 205.62 468.402 210.8C463.302 218.93 453.752 225.91 437.822 209.99C416.282 188.45 404.162 185.35 393.222 184.94C390.682 184.85 388.182 187.91 385.662 187.91C382.402 187.91 379.222 184.81 375.872 185.06C365.492 185.85 353.602 189.92 333.542 209.98C317.622 225.9 308.062 218.92 302.962 210.79C299.722 205.61 298.152 199.56 298.152 193.45V137.04L296.222 137.53C294.702 130.81 294.942 117.42 310.382 97.9297C333.442 68.8297 366.092 65.8096 366.092 65.8096C305.672 65.8096 287.892 105.55 287.892 105.55L292.222 139.41C292.502 141.61 292.642 143.83 292.642 146.05V289.51C292.642 333.44 328.252 369.05 372.182 369.05H399.182C443.112 369.05 478.722 333.44 478.722 289.51V146.75C478.722 144.07 478.892 141.39 479.232 138.73L483.442 105.56H483.432ZM430.382 251.96C424.652 257.69 418.052 260.16 412.582 261.14C406.692 262.2 401.262 257.72 401.262 251.73C401.262 249.32 402.412 247.07 404.332 245.61C405.552 244.68 406.332 243.22 406.332 241.57V237.04C406.332 234.24 404.062 231.96 401.252 231.96H369.972C367.172 231.96 364.892 234.23 364.892 237.04V241.57C364.892 243.22 365.682 244.69 366.892 245.61C368.812 247.07 369.962 249.32 369.962 251.73C369.962 257.72 364.532 262.21 358.642 261.14C353.172 260.15 346.572 257.69 340.842 251.96C328.352 239.47 341.552 200.71 385.552 200.71H385.672C429.672 200.71 442.872 239.46 430.382 251.96Z" fill="black"/>
<path d="M385.932 228.69C375.332 228.69 366.412 224.05 362.272 219.45C361.132 218.19 360.852 216.36 361.552 214.8C362.232 213.28 363.652 212.34 365.282 212.34H406.592C408.222 212.34 409.652 213.28 410.322 214.8C411.022 216.36 410.732 218.19 409.602 219.45C405.462 224.05 396.532 228.69 385.942 228.69H385.932ZM367.242 217.34C371.042 220.67 377.862 223.69 385.932 223.69C394.002 223.69 400.822 220.67 404.622 217.34H367.252H367.242Z" fill="black"/>
<path d="M51.4616 472.86C50.2716 472.86 49.2216 472.01 49.0016 470.8C48.7616 469.44 49.6616 468.14 51.0216 467.9C65.2016 465.35 80.9316 465.41 81.6016 465.41C82.9816 465.41 84.0916 466.54 84.0916 467.92C84.0916 469.3 82.9516 470.37 81.5816 470.41C81.4216 470.41 65.6416 470.35 51.9216 472.82C51.7716 472.85 51.6216 472.86 51.4716 472.86H51.4616Z" fill="black"/>
<path d="M398.992 178.9C397.612 178.9 396.492 177.78 396.492 176.4C396.492 170.43 391.642 165.58 385.672 165.58C379.702 165.58 374.852 170.43 374.852 176.4C374.852 177.78 373.732 178.9 372.352 178.9C370.972 178.9 369.852 177.78 369.852 176.4C369.852 167.68 376.952 160.58 385.672 160.58C394.392 160.58 401.492 167.68 401.492 176.4C401.492 177.78 400.372 178.9 398.992 178.9Z" fill="black"/>
<path d="M683.912 1040.9C683.862 1033.71 683.812 1026.92 683.832 1020.41C683.832 1019.39 683.012 1018.57 682.002 1018.56C680.992 1018.56 680.162 1019.01 680.162 1020.02C680.162 1020.02 632.172 1009.29 632.142 1008.93C632.092 1008.36 631.932 1007.57 631.032 1007.1C630.132 1006.62 629.022 1006.97 628.542 1007.87C627.332 1010.16 625.812 1012.37 624.202 1014.72C619.772 1021.17 614.752 1028.47 613.242 1041.06L604.972 1109.97C601.752 1109.08 595.582 1107.88 590.052 1109.77C585.332 1111.38 581.852 1115.61 581.572 1120.05C581.512 1121.08 581.612 1122.44 582.152 1123.96C581.252 1124.99 580.342 1126.57 580.212 1128.65C579.952 1132.81 582.752 1137.43 588.532 1142.4C602.352 1154.29 606.562 1154.66 629.882 1156.7C630.612 1156.76 631.342 1156.8 632.072 1156.8C641.562 1156.8 651.352 1151.49 660.532 1141.34C667.102 1134.07 671.262 1126.72 672.182 1125.03C677.092 1118.73 680.792 1110.2 682.422 1097.72C684.252 1083.67 684.092 1061.92 683.932 1040.89L683.912 1040.9ZM642.612 1111.26L634.942 1119.38H626.372L630.972 1109.11L632.772 1103.13L634.562 1096.5L640.762 1071.18L647.422 1059.07L647.952 1081.96L642.622 1111.25L642.612 1111.26Z" fill="white"/>
<path d="M628.202 1121.98C626.152 1121.98 624.772 1121.69 624.722 1121.68C623.642 1121.44 622.972 1120.37 623.212 1119.29C623.452 1118.21 624.532 1117.54 625.602 1117.78C626.122 1117.89 638.642 1120.45 642.352 1106.2C646.492 1090.31 645.222 1057.94 645.202 1057.62C645.162 1056.52 646.012 1055.58 647.122 1055.54C648.212 1055.51 649.152 1056.35 649.202 1057.46C649.262 1058.81 650.512 1090.74 646.222 1107.21C642.852 1120.12 633.372 1121.98 628.202 1121.98Z" fill="black"/>
<path d="M632.052 1156.96C631.312 1156.96 630.582 1156.93 629.842 1156.86C606.472 1154.82 602.262 1154.45 588.402 1142.53C582.582 1137.53 579.772 1132.85 580.022 1128.65C580.212 1125.55 582.102 1123.5 583.192 1122.77C584.112 1122.16 585.352 1122.4 585.962 1123.32C586.572 1124.23 586.332 1125.46 585.432 1126.08C585.342 1126.15 584.092 1127.09 584.012 1128.97C583.922 1130.95 585.072 1134.39 591.012 1139.5C603.902 1150.59 607.402 1150.89 630.192 1152.88C652.002 1154.79 668.792 1123.21 668.952 1122.89C669.462 1121.91 670.672 1121.53 671.652 1122.05C672.632 1122.56 673.012 1123.77 672.502 1124.75C672.322 1125.1 667.972 1133.34 660.632 1141.46C651.422 1151.65 641.582 1156.97 632.052 1156.97V1156.96Z" fill="black"/>
<path d="M632.332 1145.52C622.272 1145.52 609.632 1142.2 591.932 1133.53C582.322 1128.83 581.202 1123.06 581.392 1120.05C581.672 1115.54 585.212 1111.26 589.982 1109.63C597.782 1106.96 606.852 1110.39 607.232 1110.54C608.262 1110.94 608.772 1112.09 608.382 1113.12C607.982 1114.15 606.832 1114.66 605.802 1114.27C605.642 1114.21 597.652 1111.23 591.282 1113.41C588.512 1114.36 585.592 1117.03 585.392 1120.3C585.172 1123.79 588.122 1127.21 593.692 1129.94C623.942 1144.74 637.912 1143.53 650.672 1136.77C663.572 1129.94 675.412 1121.77 678.602 1097.24C680.392 1083.45 680.232 1061.84 680.082 1040.94C680.032 1033.74 679.982 1026.94 680.002 1020.41C680.002 1019.31 680.902 1018.42 682.002 1018.42C683.102 1018.42 684.002 1019.32 683.992 1020.43C683.972 1026.94 684.022 1033.73 684.072 1040.92C684.232 1061.96 684.392 1083.71 682.562 1097.77C679.122 1124.2 666.402 1132.98 652.542 1140.32C646.602 1143.47 640.272 1145.54 632.332 1145.54V1145.52Z" fill="black"/>
<path d="M615.432 1126.06C612.782 1126.06 610.222 1125.09 608.142 1123.24C605.342 1120.75 603.942 1117.05 604.382 1113.34L613.062 1041.04C614.582 1028.41 619.612 1021.09 624.052 1014.63C625.662 1012.29 627.182 1010.07 628.392 1007.8C628.912 1006.82 630.122 1006.45 631.092 1006.97C632.072 1007.49 632.442 1008.7 631.922 1009.67C630.612 1012.15 629.022 1014.46 627.342 1016.9C623.162 1022.98 618.432 1029.87 617.032 1041.52L608.352 1113.82C608.062 1116.23 608.982 1118.63 610.802 1120.25C612.552 1121.81 614.842 1122.4 617.082 1121.86C622.902 1120.46 627.182 1115.95 629.792 1108.44C632.072 1101.9 633.532 1094.54 634.952 1087.43C638.332 1070.52 641.512 1054.54 654.892 1049.25C655.922 1048.84 657.082 1049.35 657.492 1050.37C657.902 1051.4 657.392 1052.56 656.372 1052.97C645.022 1057.46 642.042 1072.4 638.882 1088.22C637.432 1095.46 635.942 1102.96 633.572 1109.76C629.722 1120.82 622.992 1124.56 618.012 1125.75C617.152 1125.96 616.282 1126.06 615.432 1126.06Z" fill="black"/>
<path d="M296.972 387.82C296.972 387.82 303.002 375.06 318.472 357.99C329.312 346.04 347.932 324.52 358.122 312.7C362.142 308.03 361.792 301.039 357.322 296.789C352.772 292.469 345.602 292.56 341.172 297.01L290.642 347.72C290.642 347.72 278.162 356.45 283.422 339.53C287.262 327.17 301.202 289.72 308.442 270.42C310.852 263.99 307.432 256.86 300.912 254.71C294.962 252.75 288.502 255.66 286.032 261.42L259.062 324.27C259.062 324.27 247.942 308.84 230.322 320.15C230.322 320.15 221.632 316.039 215.362 316.389C209.092 316.739 201.212 328.94 195.802 351.9C195.802 351.9 157.572 395.8 195.402 434.25C227.152 466.52 256.332 449.06 264.892 442.61C266.262 441.58 267.702 440.66 269.242 439.91C273.702 437.749 285.642 428.349 296.972 387.809V387.82Z" fill="white"/>
<path d="M234.692 455.14C222.732 455.14 208.602 450.5 193.992 435.65C173.762 415.08 174.952 392.99 179.522 378.07C183.972 363.53 192.212 353.1 193.982 350.97C199.342 328.5 207.282 314.84 215.262 314.39C220.722 314.09 227.622 316.79 230.182 317.89C244.012 309.6 254.172 316.55 258.452 320.64L284.202 260.63C287.102 253.87 294.562 250.51 301.552 252.81C305.232 254.02 308.172 256.61 309.842 260.1C311.512 263.59 311.682 267.5 310.322 271.12C302.612 291.67 289.122 327.96 285.342 340.12C283.282 346.76 284.492 347.87 284.502 347.88C285.062 348.3 287.482 347.44 289.362 346.17L339.762 295.59C344.912 290.42 353.412 290.3 358.702 295.33C363.942 300.32 364.352 308.52 359.632 313.99C349.472 325.78 330.802 347.35 319.952 359.32C305.752 374.98 299.552 387.08 298.842 388.52C294.972 402.33 284.522 434.74 270.112 441.7C268.792 442.34 267.482 443.15 266.102 444.2C261.322 447.8 249.722 455.13 234.692 455.13V455.14ZM216.172 318.37C215.942 318.37 215.712 318.37 215.482 318.39C210.742 318.66 203.172 329.4 197.762 352.36C197.692 352.68 197.532 352.97 197.322 353.21C197.232 353.32 187.932 364.14 183.302 379.36C177.182 399.5 181.742 417.49 196.842 432.84C204.602 440.73 232.352 464.62 263.702 441.01C265.302 439.81 266.832 438.86 268.382 438.11C271.762 436.48 283.672 427.98 295.052 387.28C295.082 387.17 295.122 387.07 295.172 386.96C295.422 386.43 301.502 373.73 317.002 356.65C327.822 344.72 346.462 323.18 356.612 311.4C359.942 307.54 359.652 301.76 355.952 298.25C352.222 294.7 346.232 294.78 342.602 298.43L292.072 349.14C291.992 349.22 291.902 349.3 291.802 349.37C290.772 350.09 285.472 353.56 282.152 351.13C278.932 348.78 280.252 343.05 281.532 338.95C285.342 326.69 298.862 290.32 306.582 269.73C307.552 267.14 307.432 264.34 306.232 261.84C305.032 259.34 302.922 257.49 300.292 256.62C295.292 254.97 289.952 257.38 287.872 262.22L260.902 325.07C260.622 325.73 260.002 326.19 259.282 326.27C258.562 326.35 257.862 326.04 257.442 325.45C257.032 324.89 247.172 311.72 231.402 321.84C230.822 322.21 230.092 322.26 229.462 321.96C229.382 321.92 221.782 318.37 216.152 318.37H216.172Z" fill="black"/>
<path d="M229.962 387.64C228.332 387.64 226.722 387.43 225.192 386.91C221.702 385.73 219.172 383.21 217.672 379.4C211.002 362.48 221.282 336.81 226.802 323.02C227.452 321.39 228.032 319.94 228.512 318.68C228.902 317.65 230.062 317.13 231.092 317.53C232.122 317.92 232.642 319.08 232.242 320.11C231.752 321.38 231.162 322.86 230.502 324.51C225.192 337.78 215.302 362.49 221.382 377.93C222.442 380.62 224.102 382.32 226.452 383.11C233.432 385.47 243.892 379.24 243.992 379.18C244.942 378.61 246.162 378.91 246.742 379.86C247.322 380.81 247.012 382.03 246.072 382.61C245.662 382.86 237.662 387.64 229.952 387.64H229.962Z" fill="black"/>
<path d="M212.382 381.65C207.742 381.65 203.882 380.3 200.832 377.61C191.682 369.52 193.732 352.37 193.822 351.65C193.962 350.55 194.962 349.78 196.052 349.92C197.152 350.06 197.922 351.06 197.782 352.15C197.762 352.31 195.902 367.939 203.472 374.619C207.012 377.739 212.242 378.46 219.032 376.73C220.102 376.46 221.192 377.11 221.462 378.18C221.732 379.25 221.082 380.34 220.012 380.61C217.262 381.31 214.712 381.659 212.352 381.659L212.382 381.65Z" fill="black"/>
<path d="M248.622 415.86C248.372 415.86 248.122 415.81 247.872 415.71C246.852 415.3 246.351 414.13 246.761 413.11L254.642 393.52C232.042 372.92 238.502 357.349 241.642 349.809L241.942 349.099C243.502 345.309 247.882 343.39 251.202 343.71C254.082 343.99 256.782 345.42 258.812 347.75C263.112 352.69 274.132 365.299 283.532 375.679C295.842 389.269 295.452 399.189 295.432 399.599C295.372 400.699 294.412 401.54 293.322 401.49C292.222 401.43 291.382 400.5 291.432 399.4C291.432 399.25 291.592 390.539 280.562 378.369C271.142 367.969 260.102 355.33 255.792 350.38C254.442 348.83 252.672 347.879 250.812 347.699C249.002 347.529 246.441 348.69 245.631 350.63L245.332 351.36C242.082 359.19 236.632 372.3 258.342 391.48C258.972 392.04 259.192 392.94 258.872 393.73L250.462 414.619C250.152 415.399 249.402 415.869 248.602 415.869L248.622 415.86Z" fill="black"/>
<path d="M216.922 420.65C216.622 420.65 216.322 420.58 216.042 420.44C215.052 419.95 214.642 418.75 215.132 417.76C222.512 402.79 233.512 396.3 241.452 393.49C250.072 390.44 256.902 390.94 257.192 390.97C258.292 391.06 259.112 392.02 259.022 393.12C258.932 394.22 257.962 395.04 256.872 394.95C255.842 394.87 231.632 393.33 218.722 419.53C218.372 420.24 217.662 420.65 216.922 420.65Z" fill="black"/>
<path d="M251.011 347.7C250.781 347.7 250.542 347.66 250.312 347.57C249.282 347.18 248.751 346.03 249.141 344.99L257.202 323.57C257.592 322.54 258.742 322.01 259.782 322.4C260.812 322.79 261.342 323.94 260.952 324.98L252.891 346.4C252.591 347.2 251.831 347.7 251.021 347.7H251.011Z" fill="black"/>
<path d="M583.412 989.35H156.492C155.392 989.35 154.492 988.45 154.492 987.35C154.492 986.25 155.392 985.35 156.492 985.35H583.412C584.512 985.35 585.412 986.25 585.412 987.35C585.412 988.45 584.512 989.35 583.412 989.35Z" fill="black"/>
</svg>
