<svg width="34" height="41" viewBox="0 0 34 41" fill="none" xmlns="http://www.w3.org/2000/svg">
<path d="M5.74419 11.0908L4 37.9999H30L28.2558 11.0908H5.74419Z" fill="#FFE34A"/>
<path d="M8.97674 14.1182V9.02325C8.97674 4.59213 12.5689 1 17 1V1C21.4311 1 25.0233 4.59213 25.0233 9.02326V14.1182M2 40L3.74419 8.09091H30.2558L32 40H2ZM25.0233 16.9545V16.9545C25.7939 16.9545 26.4186 16.3298 26.4186 15.5592V15.5135C26.4186 14.7429 25.7939 14.1182 25.0233 14.1182V14.1182C24.2526 14.1182 23.6279 14.7429 23.6279 15.5135V15.5592C23.6279 16.3298 24.2526 16.9545 25.0233 16.9545ZM8.97674 16.9545V16.9545C9.74737 16.9545 10.3721 16.3298 10.3721 15.5592V15.5135C10.3721 14.7429 9.74737 14.1182 8.97674 14.1182V14.1182C8.20611 14.1182 7.5814 14.7429 7.5814 15.5135V15.5592C7.5814 16.3298 8.20611 16.9545 8.97674 16.9545Z" stroke="black" stroke-width="2"/>
</svg>
